<svg viewBox="0 0 707 595.7967558048974" xmlns="http://www.w3.org/2000/svg">
      <g id="base" data-shapes="[{'id':'8407c02a7586c0718a682ee7c44ca545','type':'Feature','properties':{},'geometry':{'coordinates':[[[16.217276525130558,48.39004473693123],[16.217713725199502,48.389982397085845],[16.217783462634003,48.38954067256455],[16.21717996560554,48.38966891556245],[16.217276525130558,48.39004473693123]]],'type':'Polygon'}}]">
      <path d="M113.12000053889246,0 625.3022221102783,73.03146265251247 707,590.5141043406148 0,440.2767456900577 113.12000053889246,0Z" fill="none" stroke="red"></path>
      </g>
      <g id="contour">
      <path d="M132.39094681341913,590.5141043406148 135.3813291541335,589.4591473898348 139.30910685055676,588.2854165547792 141.66577356213114,587.502929376629 147.95021797012873,585.9379549851834 154.23466237812633,584.7642242841482 158.1624401917001,584.1121516347135 160.5191069032745,583.7209080790263 166.80355131127212,583.0688354635652 173.0879957192697,582.547177377991 179.37244024441787,582.4167628481041 185.65688465241544,582.547177377991 191.94132906041307,583.0688354635652 198.22577358556123,583.7209080790263 200.58244017998507,584.1121516347135 204.51021799355883,584.7642242841482 210.79466240155645,586.0683695490442 217.07910680955408,587.7637584024293 218.84660684323484,588.2854165547792 223.3635513347022,589.7199764493744 225.9147253060584,590.5141043406148" fill="none" stroke="black"></path>
<path d="M377.136051219016,579.9388870485268 380.47466235469625,583.0688354635652 381.456606778802,584.1121516347135 385.5807735240572,588.2854165547792 386.7591067626938,589.4591473898348 387.657034103027,590.5141043406148 M9.692440240903357,586.8508566943921 15.976884687560643,586.8508566943921 21.672162464524877,584.1121516347135 22.261329130703416,583.8513225749396 28.545773573846187,580.721374127099 30.11688467584559,579.9388870485268" fill="none" stroke="black"></path>
<path d="M469.0460512131585,579.9388870485268 471.0099401785207,584.1121516347135 472.7774400950509,588.2854165547792 473.7213546437536,590.5141043406148" fill="none" stroke="black"></path>
<path d="M549.3691068154116,579.9388870485268 550.154662307836,582.1559338211323 550.9402179174109,584.1121516347135 552.5113290194104,588.2854165547792 553.3503640826957,590.5141043406148" fill="none" stroke="black"></path>
<path d="M657.5793845074417,579.9388870485268 658.1685511853352,584.1121516347135 658.5613289315475,588.2854165547792 658.7710877852317,590.5141043406148" fill="none" stroke="black"></path>
<path d="M8.041010679117203,590.5141043406148 9.692440240903357,589.7199764493744 12.834662460131732,588.2854165547792 15.976884687560643,586.8508566943921 21.672162464524877,584.1121516347135 22.261329130703416,583.8513225749396" fill="none" stroke="black"></path>
<path d="M139.30910685055676,588.2854165547792 141.66577356213114,587.502929376629 147.95021797012873,585.9379549851834 154.23466237812633,584.7642242841482 158.1624401917001,584.1121516347135 160.5191069032745,583.7209080790263 166.80355131127212,583.0688354635652 173.0879957192697,582.547177377991 179.37244024441787,582.4167628481041 185.65688465241544,582.547177377991 191.94132906041307,583.0688354635652 198.22577358556123,583.7209080790263 200.58244017998507,584.1121516347135 204.51021799355883,584.7642242841482 210.79466240155645,586.0683695490442 217.07910680955408,587.7637584024293 218.84660684323484,588.2854165547792" fill="none" stroke="black"></path>
<path d="M9.692440240903357,586.8508566943921 15.976884687560643,586.8508566943921 21.672162464524877,584.1121516347135 22.261329130703416,583.8513225749396 28.545773573846187,580.721374127099 30.11688467584559,579.9388870485268 34.83021801698896,577.4610112864375 37.97244023270282,575.7656226907835 41.114662460131726,574.0702341068444 45.63160689302383,571.5923586716053 47.3991069032745,570.5490426668108 52.89799578370251,567.4190948867282 53.683551346417275,567.0278514259329 59.96799578956004,563.3762458894691 60.1643846743812,563.2458314650178 66.25244022098776,559.5942261628551 67.23438466852367,559.0725682776084 72.53688466413053,555.8122066236818 74.10799577784499,554.8993054182205 78.8213291072733,552.0301873656699 81.17799578370253,550.7260428282788 85.10577355041606,548.2481683302439 88.05160689302383,546.5527805429285 91.39021799355885,544.4661494939738 94.92521800234513,542.3795185504547 97.67466243670162,540.8145453867467 101.9952179964876,538.206256827427 103.95910687984438,537.0325270190788 109.06521799063009,534.0329953972756 110.24355132298716,533.2505089208571 116.1352179964876,529.8597342834306 116.52799576612993,529.5989055165331 122.81244022098775,525.9473022410748 123.40160689888135,525.6864734858922 129.09688462898538,522.6869424264116 131.45355134055976,521.5132129578 135.3813291541335,519.5569971767807 140.68382913802532,517.3399526757239 141.66577356213114,516.818295188789 147.95021797012873,514.4708364390066 152.07438459823334,513.1666927450995 154.23466237812633,512.5146208922883 160.5191069032745,510.9496485017738 166.80355131127212,509.7759192674633 172.69521797305748,508.9934330839211 173.0879957192697,508.9934330839211 179.37244024441787,508.4717756672766 185.65688465241544,508.4717756672766 191.94132906041307,508.7326043638838 194.4943845865183,508.9934330839211 198.22577358556123,509.3846761698347 204.51021799355883,510.4279910499841 210.79466240155645,511.86254907462234 215.11521796134244,513.1666927450995 217.07910680955408,513.8187645627654 223.3635513347022,515.7749801797739 228.27327357238178,517.3399526757239 229.6479957426998,517.7311958319277 235.93244015069743,519.687411577802 242.02049574416418,521.5132129578 242.21688467584556,521.5132129578 248.5013290838432,523.3390144198033 254.78577349184079,525.0344015042156 256.9460512717338,525.6864734858922 261.0702178998384,526.8602030247941 267.35466242498654,528.555590273217 272.26438466266615,529.8597342834306 273.63910683298417,530.250977533355 279.9235512409818,531.9463648286381 286.2079957661299,533.6417521824965 287.77910686812936,534.0329953972756 292.4924401741275,535.3371396066451 298.77688458212515,537.1629414552453 302.5082734640176,538.206256827427 305.06132910727325,538.9887433741358 311.3457735152709,540.8145453867467 316.6482734991627,542.3795185504547 317.6302179232685,542.6403474110726 323.91466233126613,544.8573928141885 328.0388290765212,546.5527805429285 330.19910685641423,547.4656816195243 336.48355126441186,550.4652139325157 337.0727179423055,550.7260428282788 342.7679956724095,553.8559897180173 344.5354957060903,554.8993054182205 349.05244019755764,557.6380091517551 351.21271797745067,559.0725682776084 355.33688460555527,561.9416866698955 357.104384639236,563.2458314650178 361.6213290135529,566.6366079768527 362.60327343765863,567.4190948867282 367.905773538701,571.5923586716053 367.905773538701,571.5923586716053 372.6191068446992,575.7656226907835 374.1902179466986,577.069767755352 377.136051219016,579.9388870485268 380.47466235469625,583.0688354635652 381.456606778802,584.1121516347135 385.5807735240572,588.2854165547792" fill="none" stroke="black"></path>
<path d="M9.692440240903357,512.2537921722509 15.976884687560643,512.2537921722509 19.315495788095667,508.9934330839211 22.261329130703416,506.25473158796177 23.832440232702815,504.82017369218914 28.34938467730997,500.6469146284786 28.545773573846187,500.51650029774754 33.2591069032745,496.4736558342143 34.83021801698896,495.16951257376405 38.3652180140602,492.3003973796865 41.114662460131726,490.08335389783946 43.66771800966705,488.1271391477448 47.3991069032745,485.3884386241349 49.36299578663128,483.9538812555396 53.683551346417275,480.95435232819875 55.45105134495289,479.78062365621076 59.96799578956004,476.78109493974085 61.73549578809566,475.6073663028981 66.25244022098776,472.73825206945486 68.41271800088076,471.43410934789716 72.53688466413053,468.95623810664716 75.48271800673828,467.26085254519194 78.8213291072733,465.4350527818714 83.14188466705929,463.0875960939383 85.10577355041606,462.0442820104126 91.19382910873767,458.91433999413636 91.39021799355885,458.7839256751204 97.67466243670162,455.78439809501066 99.8349402165946,454.74108412863546 103.95910687984438,452.784870514901 108.86882910580891,450.5678284974356 110.24355132298716,449.91575737095786 116.52799576612993,447.0466443441652 117.90271798330818,446.39457321768737 122.81244022098775,444.0471172326576 127.13299578077375,442.2213182893907 129.09688462898538,441.308418759182 135.3813291541335,438.569720402857 136.75605132445153,438.0480635953952 141.66577356213114,435.9614363655479 146.9682735460229,433.8748091357007 147.95021797012873,433.4835665301043 154.23466237812633,431.0056969289618 158.1624401917001,429.7015550274578 160.5191069032745,428.78865573155014 166.80355131127212,426.7020288531545 170.73132912484587,425.52830127066653 173.0879957192697,424.7458161766243 179.37244024441787,423.05043190382503 185.65688465241544,421.4854619500417 186.63882907652126,421.35504774817633 191.94132906041307,420.31173436755375 198.22577358556123,419.2684211040817 204.51021799355883,418.74676441377045 210.79466240155645,418.616350211905 217.07910680955408,418.74676441377045 223.3635513347022,419.13800690221626 229.6479957426998,419.6596635925275 235.93244015069743,420.0509060809734 242.21688467584556,420.44214856941915 248.5013290838432,420.8333910578651 254.78577349184079,421.2246335463108 258.32077355920234,421.35504774817633 261.0702178998384,421.4854619500417 267.35466242498654,421.7462902366221 273.63910683298417,422.0071185232025 279.9235512409818,422.2679469269334 286.2079957661299,422.3983611287989 292.4924401741275,422.6591894153792 298.77688458212515,422.78960361724467 305.06132910727325,422.78960361724467 311.3457735152709,422.9200178191101 317.6302179232685,422.9200178191101 323.91466233126613,423.1808461056905 330.19910685641423,423.83291699786724 336.48355126441186,425.1370586650702 338.25105129809265,425.52830127066653 342.7679956724095,426.7020288531545 349.05244019755764,428.6582416468353 351.60549572366284,429.7015550274578 355.33688460555527,431.13611113082726 361.6213290135529,433.8748091357007 361.6213290135529,433.8748091357007 367.905773538701,436.8743357786061 369.86966238691264,438.0480635953952 374.1902179466986,440.26510514425837 377.3324401506974,442.2213182893907 380.47466235469625,444.0471172326576 384.20605123658856,446.39457321768737 386.7591067626938,447.9595439915244 390.4904956445862,450.5678284974356 393.043551287842,452.39362779215406 395.9893845601594,454.74108412863546 399.3279956958396,457.4797833050142 400.899106797839,458.91433999413636 405.219662357625,463.0875960939383 405.6124401038372,463.47883893383573 408.95105123951737,467.26085254519194 411.8968846289854,470.6516236681023 412.48605130687895,471.43410934789716 415.6282735108777,475.6073663028981 418.1813290369829,478.9981378826955 418.7704957148766,479.78062365621076 421.51994017266315,483.9538812555396 424.07299569876835,488.1271391477448 424.4657734449805,488.7792107662549 426.62605122487355,492.3003973796865 428.9827179364479,496.4736558342143 430.75021797012874,499.60359992405495 431.33938453087177,500.6469146284786 433.49966231076473,504.82017369218914 435.65994009065776,508.9934330839211 437.0346623781263,511.7321347204612 437.8202178705507,513.1666927450995 439.7841068359129,517.3399526757239 441.74799568412453,521.5132129578 443.31910678612394,524.7735727138879 443.71188453233617,525.6864734858922 445.6757734976983,529.8597342834306 447.83605127759125,534.0329953972756 449.6035511941215,537.8150135657876 449.7999401258029,538.206256827427 451.76382897401453,542.3795185504547 453.7277179393767,546.5527805429285 455.6916067875883,550.7260428282788 455.88799571926967,551.1172861836386 457.6554956357999,554.8993054182205 459.6193846011621,559.0725682776084 461.58327344937373,563.2458314650178 462.1724401272673,564.6803907548817 463.35077348305447,567.4190948867282 465.3146623312661,571.5923586716053 467.2785512966283,575.7656226907835 468.4568845352649,578.5043273849525 469.0460512131585,579.9388870485268 471.0099401785207,584.1121516347135 472.7774400950509,588.2854165547792" fill="none" stroke="black"></path>
<path d="M707,250.9591266980033 700.9813289198324,252.2081117844311 694.6968845118347,253.51224970281692 690.5727178837301,254.42514630426226 688.4124401038372,254.94680147161654 682.127995578689,256.25093962430344 675.8435511706914,257.55507765983975 670.1482734405874,258.59838811169885 669.5591067626939,258.72880196211275 663.2746623546961,259.77211253112245 656.9902178295481,260.8154229829816 650.7057734215505,261.72831970157745 644.4213290135528,262.51080268691004 641.2791068095539,262.77163027058714 638.1368844884047,263.0324579714149 631.8524400804071,263.55411325591973 625.5679956724094,263.8149408395969 619.2835511472614,263.8149408395969 612.9991067392637,263.94535469001073 606.7146623312661,264.2061823908384 600.4302179232684,264.72783767534327 594.1457733981204,265.37990681026196 587.8613289901227,266.2928035288578 584.1299401082304,266.9448727809271 581.5768845821251,267.46652806543193 575.292440056977,268.90108018568316 569.0079956489794,270.5964601239126 567.43688454698,271.11811540841745 562.7235512409818,272.6830814962331 556.4391067158336,275.2913583873595 556.4391067158336,275.2913583873595 550.154662307836,278.42129091444235 548.3871622741552,279.4646017177531 543.8702178998384,282.203292810745 541.9063290516267,283.6378452824478 537.5857734918408,287.02860597896057 536.8002178822658,287.8110891985941 532.2832733907985,291.9843333490415 531.3013289666926,293.02764450380386 528.551884508906,296.15757785094047 525.4096623049072,300.3308225871405 525.016884558695,300.7220643726832 522.4638290325898,304.50406767479217 519.910773389334,308.677312996745 518.7324401506974,310.89434974243625 517.7504957265916,312.8505586701493 515.5902179466987,317.0238045778547 513.8227179130178,321.1970508370117 512.4479956255493,324.32698558995475 512.055217879337,325.3702973304698 510.4841067773376,329.543544058229 508.9129956753382,333.7167912545903 507.53827350502024,337.8900385681021 506.1635512175516,342.0632862330655 506.1635512175516,342.1937003177805 504.98521786176445,346.23653424948066 503.8068845059772,350.4097825001967 502.62855126734064,354.58303110236443 501.6466068432348,358.7562799388332 500.66466230197847,362.9295291267536 499.879106809554,366.3202942749866 499.6827178778726,367.10277843182456 498.70077345376683,371.27602820549765 497.9152178441919,375.4492782134718 497.1296623517674,379.6225285728975 496.3441067421925,383.79577916662436 495.5585512497681,387.9690301118028 495.1657735035558,392.1422812912823 494.96938457187446,396.31553270506294 494.96938457187446,400.48878447029506 495.1657735035558,404.66203658697884 495.5585512497681,408.8352889379637 496.14771792766163,413.0085415232496 496.73688460555525,417.1817944599871 497.7188290296611,421.35504774817633 498.8971623854482,425.52830127066653 499.879106809554,429.04948413528103 500.0754956240849,429.7015550274578 501.4502179115534,433.8748091357007 503.0213290135529,438.0480635953952 504.78882904723366,442.2213182893907 506.1635512175516,445.2208452837478 506.7527178954452,446.39457321768737 508.7166067436569,450.5678284974356 510.8768845235499,454.74108412863546 512.4479956255493,458.0014402296266 512.8407734889121,458.91433999413636 514.8046623371237,463.0875960939383 516.7685511853352,467.26085254519194 518.536051219016,471.43410934789716 518.7324401506974,472.08618070867607 520.1071623210154,475.6073663028981 521.8746623546962,479.78062365621076 523.2493845250142,483.9538812555396 524.8204956270137,488.1271391477448 525.016884558695,488.9096250618407 526.1952179144822,492.3003973796865 527.3735512702693,496.4736558342143 528.551884508906,500.6469146284786 529.5338290501624,504.82017369218914 530.5157734742681,508.9934330839211 531.3013289666926,512.6450352933097 531.497717898374,513.1666927450995 532.0868845762676,517.3399526757239 532.8724400686921,521.5132129578 533.657995678267,525.6864734858922 534.6399401023727,529.8597342834306 535.4254957119477,534.0329953972756 536.4074401360535,538.206256827427 537.3893845601594,542.3795185504547 537.5857734918408,543.0315906961421 538.5677179159466,546.5527805429285 539.5496623400525,550.7260428282788 540.7279956958396,554.8993054182205 542.1027178661576,559.0725682776084 543.2810512219447,563.2458314650178 543.8702178998384,564.8108051910483 544.6557733922629,567.4190948867282 546.2268844942622,571.5923586716053 547.7979957134122,575.7656226907835 549.3691068154116,579.9388870485268 550.154662307836,582.1559338211323 550.9402179174109,584.1121516347135 552.5113290194104,588.2854165547792 M9.692440240903357,416.26889539838055 15.976884687560643,416.26889539838055 18.726329121917125,413.0085415232496 21.868551349346035,408.8352889379637 22.261329130703416,408.18321816293746 24.61799579541757,404.66203658697884 26.778273575310568,400.48878447029506 28.545773573846187,396.31553270506294 28.545773573846187,396.31553270506294 29.920495791024425,392.1422812912823 30.509662457202964,387.9690301118028 30.902440238560345,383.79577916662436 30.902440238560345,379.6225285728975 31.295218008202667,375.4492782134718 31.687995789560045,371.27602820549765 32.473551340559744,367.10277843182456 33.2591069032745,362.9295291267536 34.43744023563158,358.7562799388332 34.83021801698896,357.32172559272175 35.61577356798866,354.58303110236443 37.18688468170312,350.4097825001967 38.75799578370251,346.23653424948066 40.72188467877435,342.0632862330655 41.114662460131726,341.1503883429643 42.68577356213113,337.8900385681021 45.042440226845294,333.7167912545903 47.3991069032745,329.6739580257933 47.3991069032745,329.543544058229 50.148551337630984,325.3702973304698 52.89799578370251,321.1970508370117 53.683551346417275,320.1537392136472 56.04021801113143,317.0238045778547 58.986051342024126,312.8505586701493 59.96799578956004,311.5464193459571 61.93188467291682,308.677312996745 64.48494022245214,304.50406767479217 66.25244022098776,301.6349616770317 67.03799578370251,300.3308225871405 69.1982735635955,296.15757785094047 71.35855133177346,291.9843333490415 72.53688466413053,289.2456419045981 73.12605133030907,287.8110891985941 74.89355134055974,283.6378452824478 76.26827355773798,279.4646017177531 77.64299577491622,275.2913583873595 78.62494022245214,271.11811540841745 78.8213291072733,270.46604627349876 79.60688466998806,266.9448727809271 80.1960513361666,262.77163027058714 80.78521800234513,258.59838811169885 80.9816068871663,254.42514630426226 81.17799578370253,250.25190473112667 81.17799578370253,246.07866350944266 81.57077355334484,241.90542252205972 81.96355133470222,237.7321818861284 82.7491068857019,233.55894148449815 83.53466244841668,229.38570143431954 84.71299578077375,225.21246161844198 85.10577355041606,223.77791055254553 85.89132911313084,221.039222154016 87.46244022684529,216.86598292389107 89.03355132884468,212.69274404521784 90.99744022391653,208.51950540084562 91.39021799355885,207.60660950230346 92.9613291072733,204.34626699077447 95.31799577198747,200.17302904930543 97.67466243670162,196.1302049582503 97.67466243670162,195.999791224987 100.42410688277316,191.82655375212013 103.17355132884468,187.65331663070484 103.95910687984438,186.61000735035108 106.31577354455854,183.48007974359072 109.45799577198747,179.3068432079281 110.24355132298716,178.26353404472482 112.60021798770131,175.13360690656657 115.74244021513023,170.9603709566567 116.52799576612993,169.91706191060393 118.88466240741397,166.78713524104785 122.22327354309417,162.61389975974012 122.81244022098775,161.831418180214 125.56188467877435,158.44066462988394 129.09688462898538,154.26742985147942 129.09688462898538,154.26742985147942 132.82827351087778,150.0941953073759 135.3813291541335,147.22509669009912 136.55966239277015,145.92096111472407 140.68382913802532,141.74772703922272 141.66577356213114,140.70441869607322 144.80799576612992,137.57449343232355 147.95021797012873,134.70539551794994 149.3249402575973,133.40126005972542 154.23466237812633,129.22802703857892 154.23466237812633,129.22802703857892 159.53716247916867,125.05479425173348 160.5191069032745,124.27231314080946 165.23244020927268,120.88156169918909 166.80355131127212,119.83825370749118 171.7132735489517,116.70832949809635 173.0879957192697,115.9258485043229 179.37244024441787,112.53509764845514 179.5688290589487,112.53509764845514 185.65688465241544,109.9268279035114 189.97744021220146,108.36186603311506 191.94132906041307,107.70979865545438 198.22577358556123,106.01442340324637 204.51021799355883,104.84070202973669 209.4199402312384,104.18863465207602 210.79466240155645,104.05822127026433 217.07910680955408,103.6669807733776 223.3635513347022,103.6669807733776 229.6479957426998,103.53656739156591 235.93244015069743,103.53656739156591 242.21688467584556,103.40615389260364 248.5013290838432,103.40615389260364 254.78577349184079,103.40615389260364 261.0702178998384,103.27574039364144 267.35466242498654,103.27574039364144 273.63910683298417,103.27574039364144 279.9235512409818,103.14532689467919 286.2079957661299,103.14532689467919 292.4924401741275,103.14532689467919 298.77688458212515,103.14532689467919 305.06132910727325,103.14532689467919 311.3457735152709,103.14532689467919 317.6302179232685,103.14532689467919 323.91466233126613,103.01491339571692 330.19910685641423,102.75408651494303 336.48355126441186,102.23243263624455 342.7679956724095,101.58036525858394 349.05244019755764,100.79788449911156 353.5693845718745,100.01540362248862 355.33688460555527,99.75457674171467 361.6213290135529,98.45044210354388 367.905773538701,96.75506708563688 371.04799574269975,95.84217294435282 374.1902179466986,94.92927880306875 380.47466235469625,92.71225002361385 383.02771788080145,91.6689425005181 386.7591067626938,90.23439459768613 392.45438460994836,87.49571240813498 393.043551287842,87.23488541021045 399.3279956958396,83.97454957626195 400.3099401199454,83.32248243290236 405.6124401038372,80.19256021506664 407.18355120583664,79.14925292627191 411.8968846289854,76.0193309427372 413.27160679930336,74.97602365394253 418.1813290369829,71.45486164212328 418.96688452940737,70.80279461591418 424.4657734449805,66.89039269296093 424.8585511911928,66.62956592933749 430.75021797012874,62.58675097602408 430.94660678465954,62.456337594212386 437.0346623781263,58.804762903484686 437.8202178705507,58.283109493388366 443.31910678612394,55.28360194602026 445.6757734976983,54.10988162686543 449.6035511941215,52.15368113399091 454.51327343180117,49.936654111794084 455.88799571926967,49.41500070169777 462.1724401272673,46.937147033028076 465.70744007747834,45.76342683102376" fill="none" stroke="black"></path>
<path d="M9.692440240903357,101.58036525858394 15.976884687560643,101.58036525858394 17.351606904738883,100.01540362248862 21.47577356798866,95.84217294435282 22.261329130703416,95.05969218488045 25.599940231238435,91.6689425005181 28.545773573846187,88.93026019381637 30.11688467584559,87.49571240813498 34.633829120452745,83.32248243290236 34.83021801698896,83.19206905109067 39.543551346417274,79.14925292627191 41.114662460131726,77.84511875670322 44.649662457202965,74.97602365394253 47.3991069032745,72.75899569454138 49.755773567988655,70.80279461591418 53.683551346417275,67.8032864827934 55.254662448416674,66.62956592933749 59.96799578956004,62.97799112145921 60.753551340559746,62.456337594212386 66.25244022098776,58.54393613986124 66.64521800234513,58.283109493388366 72.53688466413053,54.10988162686543 72.53688466413053,54.10988162686543 78.8213291072733,49.936654111794084 78.8213291072733,49.936654111794084 85.10577355041606,45.76342683102376 M707,397.5940505042603 700.9813289198324,399.96712801428487 699.6066067495143,400.48878447029506 694.6968845118347,402.57541052863695 690.1799400203673,404.66203658697884 688.4124401038372,405.4445213295694 682.127995578689,408.57446065138333 681.5388290179459,408.8352889379637 675.8435511706914,412.09564257879356 674.272440068692,413.0085415232496 669.5591067626939,416.26889539838055 668.1843844752253,417.1817944599871 663.2746623546961,421.35504774817633 663.2746623546961,421.35504774817633 659.3468845411223,425.52830127066653 656.9902178295481,429.04948413528103 656.5974400833359,429.7015550274578 654.4371623034428,433.8748091357007 653.0624401331248,438.0480635953952 652.4732734552313,442.2213182893907 652.4732734552313,446.39457321768737 652.8660512014434,450.5678284974356 653.6516066938678,454.74108412863546 654.0443845572306,458.91433999413636 654.6335512351242,463.0875960939383 654.829940049655,467.26085254519194 655.2227179130177,471.43410934789716 655.4191067275486,475.6073663028981 655.6154956592301,479.78062365621076 655.8118844737609,483.9538812555396 655.8118844737609,488.1271391477448 656.0082734054423,492.3003973796865 656.0082734054423,496.4736558342143 656.0082734054423,500.6469146284786 655.8118844737609,504.82017369218914 655.8118844737609,508.9934330839211 655.6154956592301,513.1666927450995 655.4191067275486,517.3399526757239 655.2227179130177,521.5132129578 655.2227179130177,525.6864734858922 655.0263289813365,529.8597342834306 655.0263289813365,534.0329953972756 655.2227179130177,538.206256827427 655.2227179130177,542.3795185504547 655.4191067275486,546.5527805429285 655.4191067275486,550.7260428282788 655.6154956592301,554.8993054182205 656.0082734054423,559.0725682776084 656.2046623371236,563.2458314650178 656.5974400833359,567.4190948867282 656.7938290150172,571.5923586716053 656.9902178295481,572.7660891359964 657.1866067612294,575.7656226907835 657.5793845074417,579.9388870485268 658.1685511853352,584.1121516347135 658.5613289315475,588.2854165547792" fill="none" stroke="black"></path>
<path d="M12.834662460131732,588.2854165547792 15.976884687560643,586.8508566943921 21.672162464524877,584.1121516347135 22.261329130703416,583.8513225749396" fill="none" stroke="black"></path>
<path d="M0,527.4147547419615 2.0332735758963225,525.6864734858922 3.407995797760585,524.3823295225388 6.550218019331971,521.5132129578 9.692440240903357,518.3832677433141 10.674384684924757,517.3399526757239 14.994940240024727,513.1666927450995 15.976884687560643,512.2537921722509 19.315495788095667,508.9934330839211 22.261329130703416,506.25473158796177" fill="none" stroke="black"></path>
<path d="M0,432.19738755449396 2.8188291315820453,429.7015550274578 3.407995797760585,429.04948413528103 7.13938468551051,425.52830127066653 9.692440240903357,423.05043190382503 11.263551351103295,421.35504774817633 15.191329124845888,417.1817944599871 15.976884687560643,416.26889539838055 18.726329121917125,413.0085415232496 21.868551349346035,408.8352889379637 22.261329130703416,408.18321816293746" fill="none" stroke="black"></path>
<path d="M0,121.4953666576339 0.4621624651106297,120.88156169918909 3.407995797760585,116.83874299705855 3.407995797760585,116.70832949809635 6.7466069076676485,112.53509764845514 9.692440240903357,108.75310653000179 10.085218018746218,108.36186603311506 13.620218022846485,104.18863465207602 15.976884687560643,101.58036525858394 17.351606904738883,100.01540362248862 21.47577356798866,95.84217294435282 22.261329130703416,95.05969218488045" fill="none" stroke="black"></path>
<path d="M445.6757734976983,54.10988162686543 449.6035511941215,52.15368113399091 454.51327343180117,49.936654111794084 455.88799571926967,49.41500070169777 462.1724401272673,46.937147033028076 465.70744007747834,45.76342683102376 468.4568845352649,44.85053350979346 474.741329060413,43.15516001484346 480.82938453672926,41.59019990170509 481.02577346841065,41.59019990170509 487.3102178764083,40.28606655219023 493.5946624015564,39.24275996629868 499.879106809554,38.46027990972956 506.1635512175516,37.938626616783814 512.4479956255493,37.54738658849919 518.7324401506974,37.41697332383807 524.0349401345892,37.41697332383807 525.016884558695,37.41697332383807 531.3013289666926,37.156146677365136 537.5857734918408,36.76490664908058 543.8702178998384,36.373666620796016 550.154662307836,35.5911866813774 556.4391067158336,34.80870674195873 562.7235512409818,33.76540027321782 565.276606767087,33.243746980272014 569.0079956489794,32.59168030551458 575.292440056977,31.157133808489046 581.5768845821251,29.59217404680233 583.1479956841246,29.0705208710071 587.8613289901227,27.766387755793254 594.1457733981204,25.81018820012306 596.5024401096946,24.897295113193778 600.4302179232684,23.593162115130507 606.7146623312661,21.11530950081559 607.6966067553719,20.724069589681537 612.9991067392637,18.507043738990067 617.3196622990497,16.55084441762089 619.2835511472614,15.768364712503299 625.5679956724094,12.89927265565656 626.7463290281967,12.377619597011837 631.8524400804071,10.291007245282564 637.1549400642989,8.204394893553419 638.1368844884047,7.813155099569877 644.4213290135528,5.726542982141623 649.3310512512323,4.031170658697039 650.7057734215505,3.639930864713497 656.9902178295481,1.8141453937582412 663.2746623546961,0.24918633497471024 664.2753260285523,0" fill="none" stroke="black"></path>
<path d="M72.53688466413053,54.10988162686543 72.53688466413053,54.10988162686543 78.8213291072733,49.936654111794084 78.8213291072733,49.936654111794084 85.10577355041606,45.76342683102376 85.10577355041606,45.76342683102376 91.39021799355885,41.72061328351684 91.78299577491622,41.59019990170509 97.67466243670162,37.938626616783814 98.46021799941637,37.41697332383807 103.95910687984438,34.15664018435187 105.53021799355885,33.243746980272014 110.24355132298716,30.505067250882124 112.60021798770131,29.0705208710071 116.52799576612993,26.853494668864034 120.06299576320116,24.897295113193778 122.81244022098775,23.332335585808146 127.91855127319819,20.724069589681537 129.09688462898538,20.07200314922519 135.3813291541335,17.072497593416124 136.36327357823933,16.55084441762089 141.66577356213114,14.072992154757568 145.5935513757049,12.377619597011837 147.95021797012873,11.33431336257201 154.23466237812633,8.726047952198014 155.41299573391353,8.204394893553419 160.5191069032745,6.248196040786346 166.2143846333785,4.031170658697039 166.80355131127212,3.7703441293746778 173.0879957192697,1.55331886443588 177.5863376429201,0" fill="none" stroke="black"></path>
<path d="M0,7.272500692685703 3.407995797760585,5.596129717480443 6.550218019331971,4.031170658697039 9.692440240903357,2.4662115999135077 14.7061512485641,0" fill="none" stroke="black"></path>
      </g>
    </svg>